<?xml version="1.0" encoding="UTF-8"?>
<svg id="Capa_2" data-name="Capa 2" xmlns="http://www.w3.org/2000/svg" viewBox="0 0 149.06 56.67">
  <g id="Capa_1-2" data-name="Capa 1">
    <g>
      <path d="m71.32,26.48c-1.38-2.18-.98-5.65.77-7.74,1.28-1.53,2.87-2.6,4.91-2.74.57-.04,1.18.14,1.74.32.51.16.97.49,1.48.68,1.81.65,3.62,1.28,5.45,1.88.33.11.73,0,1.09,0-.13-.39-.15-.9-.41-1.14-.41-.38-.98-.6-1.5-.85-.29-.14-.67-.13-.92-.32-.41-.31-.96-.68-1.04-1.1-.05-.3.51-.89.91-1.06,1.77-.74,3.59-1.39,5.4-2.06.55-.2,1.13-.31,1.64-.58.29-.16.46-.54.68-.83-.36-.06-.76-.25-1.08-.17-1.16.3-2.29.71-3.45,1.04-.53.15-1.09.2-1.64.29-.04-.1-.08-.21-.12-.31.38-.2.75-.43,1.15-.6,1.47-.63,2.96-1.21,4.41-1.89.32-.15.51-.61.75-.92-.42-.05-.89-.24-1.25-.12-1.54.55-3.05,1.19-4.57,1.79-.38.15-.78.25-1.17.37-.04-.1-.09-.2-.13-.3.32-.18.63-.4.96-.54,1.13-.49,2.3-.93,3.41-1.47.36-.17.59-.61.87-.93-.41-.04-.87-.22-1.22-.1-1.4.51-2.76,1.12-4.15,1.68-.41.16-.85.25-1.33.26.89-1.42,2.85-1.53,3.7-2.93-.05-.09-.1-.19-.15-.28-.3.05-.63.05-.89.17-1.92.88-3.92,1.63-5.7,2.72-1.55.96-2.93,2.24-4.25,3.51-5.44,5.27-11.53,7.54-18.78,4.77-3.33-1.27-6.3-3.18-8.91-5.61-.25-.24-.46-.93-.31-1.13,3.42-4.64,7.49-8.43,13.28-9.89,1.88-.47,3.8-.47,5.61.15,3.02,1.03,5.99,2.24,8.95,3.42.89.36.95.95.32,1.71-.9,1.1-2.58,1.17-3.97.24-2.05-1.37-4.11-2.71-6.19-4.03-.26-.17-.65-.13-.98-.18.02.37-.1.86.09,1.09.42.52,1.03.89,1.51,1.36.54.54,1.03,1.13,1.54,1.69-.64.35-1.24.89-1.92,1.02-1.93.35-3.88.54-5.83.79-.68.09-1.5-.11-1.76.85.63.09,1.26.27,1.89.25,1.16-.02,2.32-.18,3.48-.24.33-.02.66.1.99.15,0,.12.01.25.02.37-.57.12-1.14.24-1.72.35-1.39.26-2.8.45-4.18.79-.38.09-.66.59-.99.9.41.09.84.29,1.23.24,1.8-.25,3.59-.57,5.39-.85.2-.03.41.04.61.06.02.1.04.2.06.3-1.94.43-3.89.85-5.83,1.28v.52c.41.08.83.27,1.21.22,1.55-.21,3.09-.49,4.63-.73.36-.06.74-.07,1.1-.1.04.14.08.27.12.41-1.42.53-2.85,1.06-4.27,1.58.02.13.03.25.05.38.31.06.64.24.91.17,2.64-.64,5.31-1.22,7.9-2.03,1.85-.57,3.22-1.93,4.38-3.48,4.24-5.69,9.83-7.96,16.83-6.57,3.09.62,6,1.74,8.76,3.27.55.3,1.02.6.67,1.34-2.33,4.91-5.27,9.33-10.22,12-3.95,2.13-8.11,2.01-12.32.92-.7-.18-1.44-.32-2.08-.65-1.1-.56-1.95-.19-2.78.51-1.8,1.51-2.82,3.39-2.77,5.79,0,.21-.03.43-.07.87Z"/>
      <path d="m3.37,35.95c2.8-2.03,5.7-1.81,8.54-.33,3.2,1.68,3.69,4.72,3.55,7.96-.02.43-.1.87-.17,1.3-.6,3.59-2.46,5.47-6.1,5.7-2.15.13-4.36-.01-6.48-.39C.53,49.8,0,48.85,0,46.66c0-4.58,0-9.17,0-13.75,0-.36-.01-.73,0-1.09.14-2.59.4-2.85,2.97-3.12.46-.05.91-.15,1.51-.25,0,2.03.08,3.97-.05,5.91-.04.55-.69,1.06-1.06,1.6Zm1.2,6.5h0c0,.62,0,1.23,0,1.85,0,2.31.12,2.44,2.47,2.32,1.35-.07,2.64-.33,3.29-1.7.85-1.81.81-3.65-.38-5.26-1.12-1.51-2.86-1.41-4.49-1.13-.34.06-.8.62-.84.99-.12.97-.04,1.95-.04,2.93Z"/>
      <path d="m138.08,50.31v6.36c-.97-.12-1.83-.27-2.69-.33-.92-.06-1.39-.57-1.56-1.4-.12-.6-.2-1.22-.2-1.83-.02-5.02.04-10.03-.04-15.05-.03-1.51.67-2.34,1.89-2.84,2.24-.93,4.61-.97,6.97-.75,5.61.54,6.83,4.09,6.57,8.7-.31,5.49-4.2,8.26-9.68,7.32-.35-.06-.71-.1-1.26-.18Zm.01-7.69h0c0,.65,0,1.3,0,1.96q0,2.11,2.15,2.24c2.4.15,3.86-1.13,4.2-3.69.33-2.4-.82-4.11-3.12-4.51-.76-.13-1.57,0-2.36,0-.65,0-.89.33-.88.95.02,1.01,0,2.03,0,3.04Z"/>
      <path d="m89.96,28.26c1.08.1,1.94.16,2.8.26,1.04.12,1.52.81,1.61,1.77.1,1.19.15,2.39.17,3.59.01.71.22.89.98.83,1.66-.13,3.35-.28,4.98-.09,2.5.29,4.09,2.2,4.13,4.72.06,3.42,0,6.84.03,10.25,0,.75-.28,1.02-1.02,1.05-2.32.11-3.42-.93-3.46-3.28-.04-2.32-.13-4.65-.2-6.97-.03-1.12-.69-1.61-1.72-1.75-.11-.01-.22-.02-.33-.02-3.18-.22-3.41,0-3.41,3.12,0,1.82.02,3.64,0,5.45-.03,2.48-.87,3.31-3.35,3.41-.87.04-1.29-.22-1.24-1.16.06-1.09.01-2.18.01-3.27,0-5.49,0-10.98,0-16.47,0-.46,0-.93,0-1.45Z"/>
      <path d="m112.48,44.85c.58,1.52,1.6,1.75,2.6,1.74,1.88-.03,3.77-.18,5.64-.37,1.52-.15,1.58-.14,1.39,1.35-.22,1.71-1.04,2.66-2.69,2.99-2.39.47-4.78.38-7.12-.34-2.37-.72-3.78-2.3-4.3-4.74-.46-2.14-.45-4.26.09-6.37.51-2.03,1.79-3.41,3.77-4.03,2.48-.79,5.01-.9,7.5-.06,2.83.95,4.51,4.91,3.15,7.57-.33.65-1.15,1.31-1.86,1.47-1.4.33-2.87.31-4.32.44-1.21.11-2.42.22-3.85.36Zm-.03-3.27c.94-.09,1.77-.15,2.59-.26.86-.12,1.75-.17,2.54-.47.87-.33.96-1.25.33-1.85-.92-.86-2.78-1.03-4.12-.37-1.23.61-1.47,1.68-1.34,2.95Z"/>
      <path d="m58.06,42.4c.26-1.31.43-2.64.79-3.92.52-1.83,1.88-2.9,3.64-3.45,2.27-.71,4.59-.77,6.88-.18,3.18.81,5.07,4.67,3.69,7.65-.31.67-1.09,1.31-1.8,1.54-1.04.35-2.21.35-3.33.45-1.3.12-2.61.16-3.9.28-.28.03-.54.28-.81.43.18.29.3.73.56.84.62.27,1.3.56,1.95.54,1.81-.03,3.62-.17,5.43-.36,1.5-.15,1.69.02,1.47,1.47-.24,1.6-1.13,2.55-2.71,2.85-2.7.52-5.37.4-7.93-.65-2.68-1.1-3.46-3.44-3.73-6.05-.05-.47,0-.94,0-1.42-.07-.01-.14-.02-.21-.04Zm8.06-4.31c-1.84.1-3.26,1.26-3.17,2.73.02.25.3.71.43.7,1.51-.13,3.03-.26,4.52-.55.36-.07.8-.69.85-1.1.04-.33-.37-.86-.72-1.06-.58-.34-1.27-.48-1.91-.71Z"/>
      <path d="m22.55,44.85c.49,1.61,1.57,1.74,2.55,1.74,1.81,0,3.62-.19,5.43-.31.47-.03.93-.09,1.38-.13.64,1.88-.18,3.77-1.96,4.25-3,.8-5.98.62-8.84-.67-1.44-.65-2.36-1.78-2.84-3.28-.74-2.34-.79-4.71-.24-7.1.5-2.17,1.81-3.63,3.92-4.29,2.48-.77,5.02-.83,7.5,0,2.82.94,4.43,5.14,2.95,7.72-.34.59-1.09,1.16-1.74,1.3-1.37.3-2.8.3-4.21.43-1.25.11-2.49.23-3.91.36Zm-.03-3.26c.86-.1,1.71-.2,2.57-.29.65-.07,1.35.01,1.93-.23.5-.2,1.08-.71,1.19-1.18.08-.33-.5-.97-.93-1.23-1.02-.6-2.14-.6-3.25-.14-1.27.52-1.86,1.73-1.51,3.06Z"/>
      <path d="m51.71,34.63c1.31,0,2.54.03,3.77,0,.95-.03,1.23.34,1.01,1.26-.42,1.71-1.57,2.69-3.33,2.75q-1.43.05-1.43,1.51c0,1.67-.02,3.35.01,5.02.02,1.3.42,1.67,1.73,1.68.54,0,1.1,0,1.63-.11.9-.2,1.19.22,1.26,1.01.18,1.86-.69,2.94-2.53,3.09-3.55.28-6.83-1.53-6.71-6.1.1-3.63,0-7.27.02-10.91,0-2.46.91-3.31,3.38-3.37.83-.02,1.22.26,1.19,1.12-.03.97,0,1.94,0,3.06Z"/>
      <path d="m35.52,39.55c0-2.14-.02-4.29,0-6.43.02-1.88,2.27-3.33,3.99-2.57.22.1.41.5.43.77.06.76.05,1.53.02,2.29-.03.74.26,1.07,1.02,1.04.98-.03,1.96.02,2.94-.02.83-.03.99.35.87,1.07-.28,1.77-1.53,2.87-3.39,2.93-1.41.05-1.44.07-1.44,1.51,0,1.64,0,3.27.02,4.91.02,1.35.43,1.78,1.75,1.79.61,0,1.24-.03,1.84-.13.67-.11.92.16,1.01.79.29,2.18-.58,3.26-2.76,3.35-2.09.08-4.05-.36-5.3-2.16-.55-.79-.89-1.85-.96-2.81-.14-2.1-.04-4.21-.04-6.32,0,0,0,0-.01,0Z"/>
      <path d="m125.95,28.27c1.08.1,1.97.05,2.79.29.55.16,1.12.64,1.41,1.14.27.45.25,1.12.25,1.69.02,5.41.01,10.83,0,16.24,0,2.14-1.84,3.53-3.9,2.9-.25-.08-.52-.57-.53-.88-.05-1.67-.03-3.34-.03-5.01,0-5.01,0-10.03,0-15.04,0-.43,0-.85,0-1.33Z"/>
      <path d="m80.76,50.84c-1.07-.28-2.02-.5-2.94-.79-.93-.3-1.43-1.01-1.43-1.98-.02-2.98-.08-5.96.03-8.93.08-2.4,1.75-4.23,4.13-4.51,1.87-.22,3.77-.17,5.65-.18.27,0,.7.28.8.53.66,1.79-.62,3.6-2.53,3.64-.36,0-.73,0-1.09.03-1.87.17-2.51.84-2.53,2.71-.02,2.76,0,5.52-.02,8.28,0,.38-.04.76-.06,1.2Z"/>
    </g>
  </g>
</svg>