<?xml version="1.0" encoding="UTF-8"?>
<svg id="Capa_2" data-name="Capa 2" xmlns="http://www.w3.org/2000/svg" viewBox="0 0 150 59.73">
  <g id="Capa_1-2" data-name="Capa 1">
    <g>
      <path d="m57.59,40.21c-.51,1.31-.95,2.45-1.39,3.59-1.98,5.12-3.96,10.25-5.92,15.38-.14.37-.31.55-.74.55-4.19-.02-8.38,0-12.57-.01-.14,0-.28-.02-.49-.04.09-.27.15-.5.23-.72,4.38-11.37,8.77-22.75,13.15-34.12.18-.46.41-.6.89-.6,3.35.02,6.7.02,10.05,0,.48,0,.78.15,1.06.54,4.46,6.22,8.95,12.44,13.42,18.65.1.14.22.26.41.49.37-.95.71-1.8,1.03-2.64,2.11-5.49,4.22-10.98,6.32-16.47.14-.36.3-.57.73-.57,4.17.01,8.34,0,12.5.01.14,0,.28.03.56.06-4.17,10.8-8.32,21.55-12.46,32.3l.1.1c.15-.14.31-.26.45-.41,7.99-8.66,15.99-17.32,23.98-25.97,1.72-1.86,3.45-3.71,5.16-5.58.31-.34.63-.5,1.11-.5,4.23.02,8.46.02,12.69,0,.54,0,.73.16.81.7,1.13,6.97,2.3,13.94,3.45,20.91.74,4.45,1.47,8.91,2.2,13.36.02.14,0,.28,0,.51-.23,0-.45,0-.67,0-4.56,0-9.11-.01-13.67.01-.55,0-.68-.19-.72-.69-.15-1.83-.37-3.66-.53-5.49-.04-.45-.21-.57-.64-.57-4.99.01-9.97,0-14.96.03-.29,0-.67.18-.87.4-1.73,1.96-3.43,3.95-5.16,5.9-.19.21-.54.38-.82.38-8.01.02-16.02.02-24.03.02-.39,0-.63-.13-.86-.44-4.34-6.01-8.69-12.02-13.03-18.02-.22-.31-.46-.6-.79-1.04Zm50.78,6.02c.23.04.33.08.43.08,2.92,0,5.83,0,8.75,0,.48,0,.51-.24.48-.63-.15-2.67-.29-5.33-.41-8-.04-.86,0-1.73,0-2.59-.05,0-.09,0-.14-.01-3.01,3.68-6.01,7.36-9.1,11.14Z"/>
      <path d="m45.05,24.28c-.79,2.07-1.53,4.01-2.27,5.96q-.56,1.47-2.12,1.47c-5.05,0-10.09,0-15.14-.01-.52,0-.8.13-.99.64-.59,1.61-1.23,3.2-1.85,4.8-.09.24-.16.49-.27.84h16.5c-.06.25-.07.41-.13.55-.77,2-1.56,4-2.31,6.01-.19.52-.45.71-1.02.7-5.07-.02-10.13,0-15.2-.03-.56,0-.83.17-1.02.7-.69,1.92-1.44,3.82-2.16,5.73-.06.17-.11.34-.2.62h17.73c-.06.26-.08.42-.14.56-.8,2.1-1.62,4.19-2.4,6.3-.17.46-.41.6-.89.6-10.13-.01-20.27-.01-30.4-.01h-.77c.34-.91.64-1.7.94-2.5,4.17-10.78,8.34-21.57,12.49-32.36.18-.48.43-.64.94-.64,9.97.02,19.94.01,29.91.01.22,0,.43.02.76.04Z"/>
      <path d="m101.53,28.12c2.43-4.37,4.86-8.74,7.38-13.27-29.52-.93-58.68.97-87.67,5.54,3.57-.67,7.13-1.39,10.71-2,9.46-1.63,18.91-3.3,28.4-4.78,6.98-1.09,13.99-1.99,21-2.86,5.37-.66,10.76-1.13,16.14-1.71,4.49-.48,8.97-1.03,13.46-1.45.97-.09,1.54-.46,2.09-1.2,1.46-1.97,2.98-3.9,4.47-5.84.13-.17.28-.34.45-.55,1.67,1.11,3.29,2.2,4.92,3.29,1.34.9,2.67,1.81,4.03,2.69.25.16.61.27.91.26,6.06-.27,12.11-.56,18.17-.85.15,0,.31.02.52.15-3.93,2.57-7.85,5.14-11.86,7.77,5.17,5.48,10.28,10.89,15.38,16.3-.02.04-.04.07-.06.11-.22-.08-.43-.15-.64-.24-6.84-2.79-13.68-5.59-20.53-8.39-1.87-.76-3.75-1.51-5.61-2.31-.55-.24-.98-.18-1.49.07-6.58,3.1-13.16,6.18-19.74,9.26-.09.04-.19.07-.28.11-.04-.03-.08-.07-.13-.1Z"/>
      <path d="m138.19,55.97c0-2.08,1.67-3.73,3.76-3.71,2.04.02,3.7,1.69,3.7,3.73,0,2.07-1.66,3.73-3.74,3.74-2.08,0-3.71-1.64-3.71-3.75Zm3.71,3.08c1.72,0,3.1-1.35,3.12-3.04.02-1.67-1.46-3.13-3.14-3.12-1.67.02-3.07,1.43-3.08,3.11,0,1.68,1.4,3.06,3.1,3.05Z"/>
      <path d="m143.16,55.92c.16.79.28,1.41.41,2.04-.57.22-.78.05-.8-.52-.03-.95-.8-1.42-1.69-1.03-.1.05-.18.25-.19.38-.03.3.02.61-.03.91-.02.13-.2.32-.31.32-.11,0-.34-.18-.34-.28-.02-1.16-.03-2.32,0-3.48,0-.11.25-.29.39-.3.47-.04.94-.01,1.4-.01.54,0,1.09.03,1.37.6.27.56.09,1.07-.21,1.37Zm-1.46-1.37h0c-.1-.01-.21,0-.31-.01-.54-.07-.51.29-.52.66,0,.37.03.65.52.6.28-.03.61.07.84-.04.23-.11.48-.4.5-.63.02-.18-.28-.43-.49-.56-.13-.08-.36-.02-.54-.02Z"/>
    </g>
  </g>
</svg>