<?xml version="1.0" encoding="UTF-8"?>
<svg id="Capa_2" data-name="Capa 2" xmlns="http://www.w3.org/2000/svg" viewBox="0 0 150 58.53">
  <defs>
    <style>
      .cls-1 {
        fill: #1b0f02;
      }
    </style>
  </defs>
  <g id="Capa_1-2" data-name="Capa 1">
    <g>
      <path class="cls-1" d="m150,33.99c-.78.13-1.57.38-2.35.38-7.23.03-14.46.02-21.68.02-2.43,0-2.5.08-1.4,2.15,1.55,2.92,3.94,4.48,7.34,4.53,2.76.04,5.14-.75,7.1-2.69.54-.53,1.05-.73,1.82-.45,1.87.69,3.78,1.24,5.65,1.91,1.27.45,1.45.95.7,2.03-1.39,2.02-3.11,3.71-5.29,4.87-3.12,1.66-6.46,2.62-10.01,2.49-4.75-.18-9.08-1.69-12.5-5.02-2.57-2.5-4.18-5.66-4.91-9.21-.8-3.91-.53-7.72,1.02-11.43,1.44-3.44,3.82-6.09,7.04-7.9,5.81-3.28,11.88-3.45,17.9-.7,5.15,2.36,8.08,6.57,9.21,12.06.07.35.23.67.35,1.01v5.95Zm-18.07-7.07h0c2.49,0,4.99,0,7.48,0,.46,0,.73-.13.51-.65-.54-1.27-1.24-2.42-2.39-3.26-2.05-1.5-4.31-2.01-6.84-1.66-3.04.41-5.17,1.94-6.43,4.71-.3.65-.16.88.57.88,2.37-.02,4.74,0,7.11,0Z"/>
      <path class="cls-1" d="m0,28.05c.5-1.51.91-3.06,1.52-4.52,1.86-4.48,5.2-7.55,9.73-9.17,4.77-1.7,9.6-1.74,14.39.16,5.06,2.01,8.49,5.52,10.02,10.74,1.59,5.45,1.21,10.73-1.72,15.69-2.71,4.57-6.87,6.97-12.01,7.94-3.05.57-6.04.41-9.04-.35-6.7-1.7-11.64-7.17-12.57-13.9-.03-.22-.2-.43-.31-.64,0-1.98,0-3.96,0-5.95Zm27.32,2.74c.09-2.57-.84-5.27-3.28-7.23-3.83-3.08-8.86-2.82-12.19.53-3.89,3.91-3.64,10.93.39,14.51,2.7,2.4,7.41,2.99,10.56,1.1,3.15-1.89,4.53-4.79,4.52-8.91Z"/>
      <path class="cls-1" d="m50.12,58.53c-1.61-.36-3.24-.69-4.84-1.1-2.89-.75-5.68-1.8-8.32-3.21-1.21-.65-1.34-1.02-.58-2.18.95-1.45,1.97-2.85,2.99-4.25.7-.96.9-1.04,2.01-.48,2.57,1.29,5.27,2.22,8.09,2.71,2.73.48,5.45.77,8.29.43,3.83-.46,7.39-1.52,10.83-3.15,1.11-.53,1.26-.5,2.01.5,1.04,1.38,2.04,2.8,2.99,4.25.75,1.15.64,1.54-.59,2.17-3.83,1.96-7.84,3.41-12.14,3.99-.22.03-.43.21-.64.31h-10.1Z"/>
      <path class="cls-1" d="m110,23.95c0,7.19,0,14.37,0,21.56,0,.43,0,.87,0,1.3,0,.82-.39,1.29-1.24,1.3-1.43.01-2.87.04-4.3,0-.92-.03-1.68-.4-2.08-1.31-.15-.34-.35-.66-.51-.99-.31-.66-.67-.57-1.14-.15-2.1,1.86-4.61,2.76-7.36,3.31-3.26.65-6.33.14-9.29-1.08-5.93-2.45-8.95-7.11-10.07-13.26-.68-3.71-.28-7.27,1.03-10.73,2.14-5.62,6.16-9.17,12.15-10.36,4.75-.95,9.14-.13,13.06,2.79.17.12.4.15.61.22.03-.18.09-.36.09-.54,0-3.35.05-6.69-.02-10.03-.02-1.07.32-1.77,1.24-2.26,2.14-1.14,4.27-2.31,6.42-3.41,1.03-.53,1.31-.33,1.4.82.03.43.01.87.01,1.3,0,7.19,0,14.37,0,21.56Zm-9.03,7.25c.16-1.67-.25-3.35-1.16-4.86-2.56-4.24-7.31-5.62-11.99-3.59-1.19.52-2.22,1.3-2.99,2.43-1.72,2.52-2.43,5.21-1.76,8.23.96,4.3,4.52,7.51,10.28,6.94,4.45-.44,7.92-4.78,7.62-9.15Z"/>
      <path class="cls-1" d="m54.49,6.81c3.94.03,7.62.89,10.84,3.29,1.37,1.01,2.55,2.15,3.3,3.7.45.91.45,1.39-.36,1.85-1.66.97-3.38,1.84-5.07,2.76-.61.33-1.05.1-1.46-.38-2.8-3.21-6.38-3.43-10.22-2.62-.36.07-.71.23-1.03.42-1.91,1.13-1.91,3.03.07,4.01,1.05.52,2.21.82,3.35,1.12,2.82.75,5.69,1.32,8.45,2.21,1.63.52,3.21,1.37,4.64,2.33,1.89,1.27,2.8,3.19,3,5.49.51,5.85-3.31,9.88-7.78,11.65-5.46,2.16-10.95,1.97-16.23-.67-2.3-1.15-4.27-2.75-5.48-5.1-.71-1.38-.71-1.53.63-2.35,1.43-.88,2.89-1.7,4.37-2.48.98-.52,1.34-.41,2.03.54,1.66,2.29,3.9,3.36,6.72,3.29,1.43-.04,2.86.1,4.23-.48.95-.4,1.73-.98,2.18-1.93.47-.99.36-1.72-.58-2.22-1.03-.55-2.15-.98-3.28-1.28-3.41-.92-6.9-1.57-10.25-2.67-4.3-1.42-6.62-4.63-6.51-8.93.1-3.95,1.94-7.05,5.38-9.19,2.79-1.74,5.82-2.38,9.06-2.34Z"/>
    </g>
  </g>
</svg>