<?xml version="1.0" encoding="UTF-8"?>
<svg id="Capa_2" data-name="Capa 2" xmlns="http://www.w3.org/2000/svg" viewBox="0 0 150.37 41.62">
  <defs>
    <style>
      .cls-1 {
        fill: #1b0f02;
      }
    </style>
  </defs>
  <g id="Capa_1-2" data-name="Capa 1">
    <g>
      <path class="cls-1" d="m150.37,8.37c-.41,1.35-1.22,2.27-2.65,2.59-1.18.26-1.8-.04-2.29-1.13-.17-.39-.3-.79-.51-1.16-.29-.51-.7-.68-1.25-.49-1.82.65-3.01,1.93-3.16,3.94-.22,2.84-.56,5.67-.86,8.51-.26,2.48-.53,4.97-.79,7.45-.08.7-.21.85-.91.93-1.68.18-3.36.38-5.05.52-.81.07-.91-.08-.86-.91.07-1.14.15-2.28.22-3.42,0-.14-.02-.27-.04-.54-.24.26-.42.43-.58.63-1.71,2.17-3.71,3.97-6.35,4.92-2.21.79-4.48.96-6.77.53-1.99-.37-3.25-1.66-4.03-3.47-.16-.37-.31-.74-.51-1.24-.4.47-.71.84-1.01,1.21-1.73,2.21-3.79,3.98-6.48,4.92-1.78.62-3.61.96-5.51.74-1.71-.2-3.13-.93-4.22-2.26-.32-.39-.64-.79-1.03-1.26-.29.4-.54.76-.79,1.1-1.83,2.5-4.28,3.91-7.4,3.99-1.91.05-3.33-.9-4.25-2.57-.17-.3-.32-.62-.52-1.02-.35.45-.64.84-.94,1.23-1.25,1.65-2.75,2.97-4.84,3.36-.97.18-2.01.22-2.99.12-1.45-.14-2.35-1.11-2.94-2.38-.18-.39-.34-.8-.55-1.29-.37.54-.68,1-1,1.46-1.1,1.56-2.5,2.75-4.36,3.26-2.21.6-4.35.48-6.16-1.15-.45-.41-.79-.94-1.16-1.43-.17-.22-.3-.47-.51-.8-.29.38-.55.7-.8,1.03-.77,1.04-1.64,1.98-2.74,2.69-1.74,1.12-3.65,1.56-5.7,1.29-1.51-.2-2.57-1.07-3.27-2.41-.18-.35-.36-.71-.55-1.09-.62.74-1.17,1.48-1.8,2.14-1.79,1.89-4,2.83-6.62,2.76-2.53-.07-4.46-1.84-4.55-4.37-.08-2.01-.01-4.05.15-6.06.3-3.63.73-7.25,1.11-10.87.06-.61.14-1.22.19-1.84.05-.54.34-.84.87-.89,1.37-.14,2.74-.28,4.1-.41.61-.06,1.22-.1,1.91-.16-.04.53-.06,1-.11,1.46-.51,4.79-1.04,9.59-1.53,14.38-.09.87-.11,1.76-.01,2.62.1.89.64,1.25,1.54,1.26,1.74.02,3.32-.92,3.9-2.63.48-1.42.76-2.93.96-4.42.44-3.38.78-6.78,1.15-10.17,0-.07.02-.14.02-.21.08-1.01.08-.99-.9-1.08-.16-.01-.4-.16-.45-.3-.16-.44-.21-.92.24-1.25.19-.14.44-.22.67-.31.46-.17.73-.47.78-.96.17-1.52.37-3.04.52-4.56.1-1.04.27-1.3,1.26-1.55,1.76-.44,3.53-.84,5.3-1.25.12-.03.24-.02.43-.04,0,.24.02.44,0,.64-.19,1.82-.39,3.64-.58,5.46-.02.21-.04.42-.04.63,0,.57.33.87.91.8.38-.05.77-.11,1.15-.15.46-.04.69.16.69.64,0,.83-.22,1.1-1.04,1.21-.28.04-.56.04-.84.08-.89.11-1.17.37-1.28,1.26-.12,1.01-.21,2.03-.32,3.04-.33,2.95-.67,5.91-1,8.86-.1.87-.18,1.75-.25,2.63-.02.24,0,.49.05.73.22,1.24,1.06,1.8,2.29,1.57,2.01-.37,3.49-2.13,3.42-4.16-.09-2.93.16-5.81,1.17-8.58.89-2.42,2.08-4.68,4.05-6.41,2.1-1.84,4.55-2.64,7.34-2.25.53.08,1.03.41,1.52.68.29.16.52.41.87.68.07-.28.15-.49.17-.7.09-.77.29-1.02,1.07-1.12.98-.12,1.96-.2,2.95-.29.81-.07,1.62-.14,2.42-.21.35-.03.47.08.43.45-.47,4.37-.94,8.75-1.4,13.12-.12,1.15-.25,2.31-.32,3.47-.03.5.02,1.02.11,1.52.18.97,1.1,1.59,2.08,1.44,1.07-.16,1.84-.76,2.4-1.66.93-1.49,1.21-3.18,1.4-4.88.41-3.76.84-7.52,1.24-11.28.37-3.46.73-6.93,1.09-10.39.11-1.07.28-1.29,1.31-1.55,1.68-.41,3.36-.82,5.04-1.22.18-.04.37-.07.68-.13-.05.67-.09,1.28-.15,1.88-.37,3.55-.75,7.1-1.13,10.65-.33,2.99-.7,5.98-1,8.97-.21,2.08-.36,4.17-.46,6.26-.06,1.35.78,1.96,2.13,1.76,1.86-.28,3.58-2.01,3.5-4.4-.16-4.47.65-8.73,3.21-12.52,2.34-3.47,5.66-5.03,9.8-4.86,3.05.12,5,3.28,3.77,6.01-.5,1.12-1.64,1.7-2.71,1.41-.6-.16-.73-.42-.73-1.04.01-.93.07-1.87-.08-2.78-.2-1.27-1.36-1.69-2.32-.82-.64.58-1.22,1.29-1.64,2.04-1.3,2.33-1.89,4.88-2.15,7.51-.19,1.82-.28,3.65,0,5.47.01.09.02.18.03.26.43,2.39,1.6,3.2,4.04,2.86,3.2-.44,5.43-2.28,7.18-4.84.17-.25.17-.64.18-.96.06-2.33.19-4.64.84-6.9.78-2.71,1.99-5.21,4.03-7.2,2.45-2.39,5.44-3.25,8.79-2.84,1.98.25,3.19,1.57,3.39,3.56.36,3.55-1.03,6.39-3.68,8.67-1.22,1.04-2.62,1.77-4.16,2.25-.52.16-1.04.32-1.55.52-.48.19-.72.55-.63,1.08.13.82.2,1.64.38,2.45.41,1.79,1.52,2.53,3.37,2.35,2.77-.27,4.95-1.57,6.77-3.62,1.28-1.43,1.91-2.99,2.05-4.93.25-3.6.72-7.18,1.1-10.76.05-.45.1-.91.13-1.37.03-.54.28-.85.83-.91,1.72-.19,3.43-.39,5.15-.56.71-.07.87.14.85.85-.02.57,0,1.13.12,1.77.4-.36.77-.74,1.2-1.07.74-.57,1.45-1.21,2.27-1.62,1.96-.99,4.71-.71,5.48,2.18v1.58Zm-79.18,8.68c.06-1.85-.88-2.67-2.38-2.33-.52.12-1.04.35-1.48.66-1.12.79-1.69,2.01-2.23,3.22-.92,2.06-1.25,4.27-1.53,6.49-.22,1.76-.12,3.47.36,5.17.52,1.83,2.04,2.43,3.66,1.44,1.41-.86,2.24-2.11,2.43-3.76.16-1.38.33-2.76.48-4.14.25-2.36.48-4.72.69-6.75Zm56.05-6.07c-.06-.45-.09-.91-.19-1.35-.36-1.56-1.54-1.93-2.66-.79-.59.61-1.11,1.33-1.52,2.07-1.21,2.21-1.69,4.64-2,7.11-.08.66.1.79.75.6,3.09-.91,5.62-4.37,5.62-7.64Z"/>
      <path class="cls-1" d="m21.34,34.18c.2-.8.41-1.59.59-2.39,2.06-8.81,4.11-17.62,6.17-26.43.2-.86.44-1.09,1.31-1.18.68-.07,1.36-.1,2.13-.15-.21.9-.39,1.7-.6,2.5-2.91,11.08-5.83,22.16-8.74,33.24-.26,1-.5,1.16-1.53,1.26-1.81.16-3.61.35-5.42.57-.48.06-.62-.09-.67-.52-.22-2.15-.45-4.3-.67-6.46-.34-3.22-.68-6.44-1.02-9.66-.33-3.18-.66-6.37-1-9.55-.21-1.98-.43-3.95-.63-5.93-.06-.55-.38-.34-.64-.24-2.52,1.01-4.32,2.76-5.36,5.25-1.13,2.73-.99,5.5-.14,8.27.23.74.23.74-.53.84-2.01.25-3.79-.93-4.34-2.97-.57-2.15-.2-4.22.92-6.11,2.25-3.79,5.55-6.36,9.63-7.97,1.85-.73,3.79-1.1,5.76-1.27.91-.08,1.02.02,1.13.9.37,2.97.73,5.94,1.09,8.91.45,3.79.9,7.58,1.35,11.37.29,2.39.58,4.78.88,7.18.02.18.08.36.12.54.06,0,.12,0,.19,0Z"/>
      <path class="cls-1" d="m40.72,8.79c0,2.07-1.62,3.65-3.76,3.67-2.08.02-3.88-1.7-3.84-3.7.03-2.13,1.69-3.72,3.86-3.71,2.17.01,3.74,1.58,3.75,3.73Z"/>
    </g>
  </g>
</svg>